<?xml version="1.0" encoding="UTF-8" standalone="no"?><!DOCTYPE svg PUBLIC "-//W3C//DTD SVG 1.1//EN" "http://www.w3.org/Graphics/SVG/1.1/DTD/svg11.dtd"><!-- Generated by graphviz version 2.40.1 (20161225.0304)
 --><!-- Title: G Pages: 1 --><svg xmlns="http://www.w3.org/2000/svg" xmlns:xlink="http://www.w3.org/1999/xlink" width="118pt" height="109pt" viewBox="0.00 0.00 118.00 109.00">
<g id="graph0" class="graph" transform="scale(1 1) rotate(0) translate(4 105)">
<title>G</title>
<polygon fill="#ffffff" stroke="transparent" points="-4,4 -4,-105 114,-105 114,4 -4,4"/>
<!-- a -->
<g id="node1" class="node">
<title>a</title>
<ellipse fill="#ffff00" stroke="#ffff00" cx="24.134" cy="-37.5469" rx="3.5" ry="3.5"/>
</g>
<!-- b -->
<g id="node2" class="node">
<title>b</title>
<ellipse fill="#0000ff" stroke="#0000ff" cx="62.8308" cy="-3.2781" rx="3.5" ry="3.5"/>
</g>
<!-- a&#45;&gt;b -->
<g id="edge1" class="edge">
<title>a-&gt;b</title>
<path fill="none" stroke="#000000" d="M27.1704,-34.8579C34.4399,-28.4203 52.7683,-12.1891 59.9143,-5.8608"/>
</g>
<!-- c -->
<g id="node3" class="node">
<title>c</title>
<ellipse fill="#ff0000" stroke="#ff0000" cx="60.2186" cy="-55.8907" rx="3.5" ry="3.5"/>
</g>
<!-- a&#45;&gt;c -->
<g id="edge2" class="edge">
<title>a-&gt;c</title>
<path fill="none" stroke="#000000" d="M27.464,-39.2398C34.3034,-42.7166 49.8701,-50.63 56.7913,-54.1484"/>
</g>
<!-- d -->
<g id="node4" class="node">
<title>d</title>
<ellipse fill="none" stroke="#000000" cx="3.7483" cy="-64.7648" rx="3.5" ry="3.5"/>
</g>
<!-- a&#45;&gt;d -->
<g id="edge4" class="edge">
<title>a-&gt;d</title>
<path fill="none" stroke="#000000" d="M21.9523,-40.4597C18.0081,-45.7258 9.7405,-56.7644 5.8531,-61.9545"/>
</g>
<!-- f -->
<g id="node6" class="node">
<title>f</title>
<ellipse fill="none" stroke="#000000" cx="23.2723" cy="-97.0105" rx="3.5" ry="3.5"/>
</g>
<!-- a&#45;&gt;f -->
<g id="edge8" class="edge">
<title>a-&gt;f</title>
<path fill="none" stroke="#000000" d="M24.0826,-41.0886C23.9305,-51.5897 23.4827,-82.493 23.3267,-93.2598"/>
</g>
<!-- b&#45;&gt;c -->
<g id="edge3" class="edge">
<title>b-&gt;c</title>
<path fill="none" stroke="#000000" d="M62.643,-7.0619C62.161,-16.7693 60.8849,-42.4716 60.4048,-52.1412"/>
</g>
<!-- e -->
<g id="node5" class="node">
<title>e</title>
<ellipse fill="none" stroke="#000000" cx="106.5023" cy="-30.2878" rx="3.5" ry="3.5"/>
</g>
<!-- b&#45;&gt;e -->
<g id="edge6" class="edge">
<title>b-&gt;e</title>
<path fill="none" stroke="#000000" d="M65.9716,-5.2206C73.9511,-10.1557 94.9507,-23.1434 103.1525,-28.2161"/>
</g>
<!-- c&#45;&gt;d -->
<g id="edge5" class="edge">
<title>c-&gt;d</title>
<path fill="none" stroke="#000000" d="M56.5135,-56.4729C46.2078,-58.0924 17.3035,-62.6346 7.2488,-64.2147"/>
</g>
<!-- c&#45;&gt;e -->
<g id="edge7" class="edge">
<title>c-&gt;e</title>
<path fill="none" stroke="#000000" d="M63.5472,-54.0494C72.0869,-49.3255 94.6974,-36.818 103.2039,-32.1124"/>
</g>
<!-- d&#45;&gt;f -->
<g id="edge9" class="edge">
<title>d-&gt;f</title>
<path fill="none" stroke="#000000" d="M5.6917,-67.9745C9.4726,-74.2191 17.7694,-87.922 21.4509,-94.0023"/>
</g>
</g>
</svg>