<?xml version="1.0" encoding="UTF-8" standalone="no"?><!DOCTYPE svg PUBLIC "-//W3C//DTD SVG 1.1//EN" "http://www.w3.org/Graphics/SVG/1.1/DTD/svg11.dtd"><!-- Generated by graphviz version 2.40.1 (20161225.0304)
 --><!-- Title: G Pages: 1 --><svg xmlns="http://www.w3.org/2000/svg" xmlns:xlink="http://www.w3.org/1999/xlink" width="1981pt" height="2780pt" viewBox="0.00 0.00 1980.89 2780.43">
<g id="graph0" class="graph" transform="scale(1 1) rotate(0) translate(4 2776.4344)">
<title>G</title>
<polygon fill="#ffffff" stroke="transparent" points="-4,4 -4,-2776.4344 1976.886,-2776.4344 1976.886,4 -4,4"/>
<!-- a -->
<g id="node1" class="node">
<title>a</title>
<ellipse fill="#ffff00" stroke="#ffff00" cx="1080.8785" cy="-2031.566" rx="18" ry="18"/>
<text text-anchor="middle" x="999.016" y="-2064.566" font-family="sans-serif" font-size="50.00" fill="#000000">Alchir</text>
</g>
<!-- b -->
<g id="node2" class="node">
<title>b</title>
<ellipse fill="#ffa500" stroke="#ffa500" cx="933.5387" cy="-2694.4344" rx="18" ry="18"/>
<text text-anchor="middle" x="846.1237" y="-2727.4344" font-family="sans-serif" font-size="50.00" fill="#000000">Navior</text>
</g>
<!-- a&#45;&gt;b -->
<g id="edge1" class="edge">
<title>a-&gt;b</title>
<path fill="none" stroke="#000000" d="M1076.9376,-2049.2962C1056.0463,-2143.2841 958.413,-2582.5273 937.4918,-2676.6494"/>
<text text-anchor="middle" x="981.6567" y="-2374.9728" font-family="sans-serif" font-size="40.00" fill="#c0c0c0">9ly</text>
</g>
<!-- c -->
<g id="node3" class="node">
<title>c</title>
<ellipse fill="#ff0000" stroke="#ff0000" cx="1308.3862" cy="-1343.0527" rx="18" ry="18"/>
<text text-anchor="middle" x="1197.3712" y="-1376.0527" font-family="sans-serif" font-size="50.00" fill="#000000">Menchab</text>
</g>
<!-- a&#45;&gt;c -->
<g id="edge2" class="edge">
<title>a-&gt;c</title>
<path fill="none" stroke="#000000" d="M1086.6162,-2014.2022C1118.2482,-1918.4733 1271.0718,-1455.9786 1302.6641,-1360.3696"/>
<text text-anchor="middle" x="1169.0821" y="-1699.2859" font-family="sans-serif" font-size="40.00" fill="#c0c0c0">9ly</text>
</g>
<!-- d -->
<g id="node4" class="node">
<title>d</title>
<ellipse fill="#ff0000" stroke="#ff0000" cx="1571.7854" cy="-1765.0394" rx="18" ry="18"/>
<text text-anchor="middle" x="1487.1479" y="-1798.0394" font-family="sans-serif" font-size="50.00" fill="#000000">Kitaka</text>
</g>
<!-- a&#45;&gt;d -->
<g id="edge3" class="edge">
<title>a-&gt;d</title>
<path fill="none" stroke="#000000" d="M1096.9328,-2022.8498C1171.2923,-1982.478 1481.7541,-1813.9198 1555.8537,-1773.6892"/>
<text text-anchor="middle" x="1300.8352" y="-1910.2695" font-family="sans-serif" font-size="40.00" fill="#c0c0c0">8ly</text>
</g>
<!-- c&#45;&gt;d -->
<g id="edge4" class="edge">
<title>c-&gt;d</title>
<path fill="none" stroke="#000000" d="M1318.0731,-1358.5719C1359.3753,-1424.7413 1520.5383,-1682.9374 1562.0105,-1749.3791"/>
<text text-anchor="middle" x="1414.4838" y="-1565.9755" font-family="sans-serif" font-size="40.00" fill="#c0c0c0">7ly</text>
</g>
<!-- e -->
<g id="node5" class="node">
<title>e</title>
<ellipse fill="#ff0000" stroke="#ff0000" cx="1954.886" cy="-1476.6064" rx="18" ry="18"/>
<text text-anchor="middle" x="1856.346" y="-1509.6064" font-family="sans-serif" font-size="50.00" fill="#000000">Vindem</text>
</g>
<!-- c&#45;&gt;e -->
<g id="edge6" class="edge">
<title>c-&gt;e</title>
<path fill="none" stroke="#000000" d="M1326.3521,-1346.7641C1419.2442,-1365.9537 1844.3221,-1453.7662 1937.0069,-1472.913"/>
<text text-anchor="middle" x="1606.1215" y="-1421.8385" font-family="sans-serif" font-size="40.00" fill="#c0c0c0">8ly</text>
</g>
<!-- f -->
<g id="node6" class="node">
<title>f</title>
<ellipse fill="#ffa500" stroke="#ffa500" cx="1301.0918" cy="-741.5379" rx="18" ry="18"/>
<text text-anchor="middle" x="1184.5093" y="-774.5379" font-family="sans-serif" font-size="50.00" fill="#000000">Gomeissa</text>
</g>
<!-- c&#45;&gt;f -->
<g id="edge8" class="edge">
<title>c-&gt;f</title>
<path fill="none" stroke="#000000" d="M1308.1679,-1325.0506C1307.0953,-1236.5968 1302.3916,-848.7201 1301.3129,-759.7637"/>
<text text-anchor="middle" x="1279.1824" y="-1054.4071" font-family="sans-serif" font-size="40.00" fill="#c0c0c0">8ly</text>
</g>
<!-- g -->
<g id="node7" class="node">
<title>g</title>
<ellipse fill="#ffa500" stroke="#ffa500" cx="945.1541" cy="-916.7498" rx="18" ry="18"/>
<text text-anchor="middle" x="863.2641" y="-949.7498" font-family="sans-serif" font-size="50.00" fill="#000000">Fomal</text>
</g>
<!-- c&#45;&gt;g -->
<g id="edge7" class="edge">
<title>c-&gt;g</title>
<path fill="none" stroke="#000000" d="M1296.7122,-1329.3517C1242.0683,-1265.2195 1011.9079,-995.0945 956.9672,-930.614"/>
<text text-anchor="middle" x="1101.2817" y="-1141.9828" font-family="sans-serif" font-size="40.00" fill="#c0c0c0">7ly</text>
</g>
<!-- d&#45;&gt;e -->
<g id="edge5" class="edge">
<title>d-&gt;e</title>
<path fill="none" stroke="#000000" d="M1586.3356,-1754.0847C1647.0196,-1708.3963 1879.6099,-1533.2811 1940.3213,-1487.5721"/>
<text text-anchor="middle" x="1737.7704" y="-1632.8284" font-family="sans-serif" font-size="40.00" fill="#c0c0c0">7ly</text>
</g>
<!-- f&#45;&gt;g -->
<g id="edge9" class="edge">
<title>f-&gt;g</title>
<path fill="none" stroke="#000000" d="M1284.873,-749.5217C1225.5772,-778.7103 1020.9195,-879.454 961.4682,-908.7191"/>
<text text-anchor="middle" x="1097.6126" y="-841.1204" font-family="sans-serif" font-size="40.00" fill="#c0c0c0">7ly</text>
</g>
<!-- h -->
<g id="node8" class="node">
<title>h</title>
<ellipse fill="#ff0000" stroke="#ff0000" cx="990.3327" cy="-686.7334" rx="18" ry="18"/>
<text text-anchor="middle" x="891.7927" y="-719.7334" font-family="sans-serif" font-size="50.00" fill="#000000">Shamak</text>
</g>
<!-- f&#45;&gt;h -->
<g id="edge10" class="edge">
<title>f-&gt;h</title>
<path fill="none" stroke="#000000" d="M1283.0409,-738.3545C1228.1167,-728.6683 1063.424,-699.6236 1008.4334,-689.9256"/>
<text text-anchor="middle" x="1120.1792" y="-678.1401" font-family="sans-serif" font-size="40.00" fill="#c0c0c0">4ly</text>
</g>
<!-- i -->
<g id="node9" class="node">
<title>i</title>
<ellipse fill="#ff0000" stroke="#ff0000" cx="921.4446" cy="-552.0551" rx="18" ry="18"/>
<text text-anchor="middle" x="836.8046" y="-585.0551" font-family="sans-serif" font-size="50.00" fill="#000000">Terion</text>
</g>
<!-- f&#45;&gt;i -->
<g id="edge12" class="edge">
<title>f-&gt;i</title>
<path fill="none" stroke="#000000" d="M1284.7789,-733.3961C1222.4727,-702.299 999.8986,-591.2117 937.6968,-560.1666"/>
<text text-anchor="middle" x="1085.6799" y="-610.7814" font-family="sans-serif" font-size="40.00" fill="#c0c0c0">6ly</text>
</g>
<!-- g&#45;&gt;h -->
<g id="edge11" class="edge">
<title>g-&gt;h</title>
<path fill="none" stroke="#000000" d="M948.6242,-899.0827C957.0338,-856.2673 978.429,-747.338 986.8508,-704.4607"/>
<text text-anchor="middle" x="942.1795" y="-813.7717" font-family="sans-serif" font-size="40.00" fill="#c0c0c0">3ly</text>
</g>
<!-- h&#45;&gt;i -->
<g id="edge13" class="edge">
<title>h-&gt;i</title>
<path fill="none" stroke="#000000" d="M982.0232,-670.4881C968.7826,-644.6023 943.0427,-594.2801 929.7836,-568.3581"/>
<text text-anchor="middle" x="930.3454" y="-631.4231" font-family="sans-serif" font-size="40.00" fill="#c0c0c0">2ly</text>
</g>
<!-- j -->
<g id="node10" class="node">
<title>j</title>
<ellipse fill="#ffff00" stroke="#ffff00" cx="1080.8784" cy="-18" rx="18" ry="18"/>
<text text-anchor="middle" x="989.3209" y="-51" font-family="sans-serif" font-size="50.00" fill="#000000">Kasterf</text>
</g>
<!-- i&#45;&gt;j -->
<g id="edge15" class="edge">
<title>i-&gt;j</title>
<path fill="none" stroke="#000000" d="M926.6586,-534.5898C950.8087,-453.6945 1051.6385,-115.9446 1075.7041,-35.3321"/>
<text text-anchor="middle" x="975.6234" y="-296.9609" font-family="sans-serif" font-size="40.00" fill="#c0c0c0">7ly</text>
</g>
<!-- l -->
<g id="node11" class="node">
<title>l</title>
<ellipse fill="#ff0000" stroke="#ff0000" cx="532.8206" cy="-301.3667" rx="18" ry="18"/>
<text text-anchor="middle" x="444.0306" y="-334.3667" font-family="sans-serif" font-size="50.00" fill="#000000">Arkard</text>
</g>
<!-- i&#45;&gt;l -->
<g id="edge14" class="edge">
<title>i-&gt;l</title>
<path fill="none" stroke="#000000" d="M906.2101,-542.2278C844.0422,-502.1254 609.9231,-351.103 547.9498,-311.1261"/>
<text text-anchor="middle" x="701.522" y="-438.677" font-family="sans-serif" font-size="40.00" fill="#c0c0c0">6ly</text>
</g>
<!-- j&#45;&gt;l -->
<g id="edge16" class="edge">
<title>j-&gt;l</title>
<path fill="none" stroke="#000000" d="M1064.7728,-26.3272C984.5895,-67.785 629.1123,-251.5802 548.927,-293.0391"/>
<text text-anchor="middle" x="781.2919" y="-171.6831" font-family="sans-serif" font-size="40.00" fill="#c0c0c0">9ly</text>
</g>
<!-- m -->
<g id="node12" class="node">
<title>m</title>
<ellipse fill="#0000ff" stroke="#0000ff" cx="131.83" cy="-99.8577" rx="18" ry="18"/>
<text text-anchor="middle" x="56.915" y="-132.8577" font-family="sans-serif" font-size="50.00" fill="#000000">Phara</text>
</g>
<!-- l&#45;&gt;m -->
<g id="edge17" class="edge">
<title>l-&gt;m</title>
<path fill="none" stroke="#000000" d="M516.6046,-293.2178C451.9887,-260.7464 213.2248,-140.7609 148.2477,-108.1081"/>
<text text-anchor="middle" x="306.8682" y="-212.6629" font-family="sans-serif" font-size="40.00" fill="#c0c0c0">6ly</text>
</g>
</g>
</svg>